<?xml version="1.0" standalone="no"?>
<!DOCTYPE svg PUBLIC "-//W3C//DTD SVG 20010904//EN"
 "http://www.w3.org/TR/2001/REC-SVG-20010904/DTD/svg10.dtd">
<svg version="1.0" xmlns="http://www.w3.org/2000/svg"
 width="225.000000pt" height="225.000000pt" viewBox="0 0 225.000000 225.000000"
 preserveAspectRatio="xMidYMid meet">
<metadata>
Created by potrace 1.16, written by Peter Selinger 2001-2019
</metadata>
<g transform="translate(0.000000,225.000000) scale(0.100000,-0.100000)"
fill="#000000" stroke="none">
<path d="M906 1819 l-348 -279 -279 0 -279 0 0 -415 0 -415 279 0 279 0 348
-279 349 -279 3 490 c1 269 1 707 0 973 l-3 483 -349 -279z"/>
<path d="M1410 1511 l-55 -50 167 -168 168 -168 -168 -168 -167 -168 55 -50
54 -49 169 167 169 168 161 -167 162 -167 55 49 55 50 -167 167 -168 168 168
168 167 167 -55 50 -55 49 -162 -167 -161 -167 -169 168 -169 167 -54 -49z"/>
</g>
</svg>
