<svg width="23" height="23" viewBox="0 0 23 23" fill="none" xmlns="http://www.w3.org/2000/svg">
<g clip-path="url(#clip0)" filter="url(#filter0_d)">
<path d="M14.9425 4.185L10 9.1275L7.3075 6.4425L6.25 7.5L10 11.25L16 5.25L14.9425 4.185ZM11.5 0C7.36 0 4 3.36 4 7.5C4 11.64 7.36 15 11.5 15C15.64 15 19 11.64 19 7.5C19 3.36 15.64 0 11.5 0ZM11.5 13.5C8.185 13.5 5.5 10.815 5.5 7.5C5.5 4.185 8.185 1.5 11.5 1.5C14.815 1.5 17.5 4.185 17.5 7.5C17.5 10.815 14.815 13.5 11.5 13.5Z" fill="black"/>
</g>
<defs>
<filter id="filter0_d" x="0" y="0" width="23" height="22.9549" filterUnits="userSpaceOnUse" color-interpolation-filters="sRGB">
<feFlood flood-opacity="0" result="BackgroundImageFix"/>
<feColorMatrix in="SourceAlpha" type="matrix" values="0 0 0 0 0 0 0 0 0 0 0 0 0 0 0 0 0 0 127 0" result="hardAlpha"/>
<feOffset dy="4"/>
<feGaussianBlur stdDeviation="2"/>
<feComposite in2="hardAlpha" operator="out"/>
<feColorMatrix type="matrix" values="0 0 0 0 0 0 0 0 0 0 0 0 0 0 0 0 0 0 0.25 0"/>
<feBlend mode="normal" in2="BackgroundImageFix" result="effect1_dropShadow"/>
<feBlend mode="normal" in="SourceGraphic" in2="effect1_dropShadow" result="shape"/>
</filter>
<clipPath id="clip0">
<rect width="15" height="14.9549" fill="white" transform="translate(4)"/>
</clipPath>
</defs>
</svg>
