<svg width="40" height="28" viewBox="0 0 40 28" fill="none" xmlns="http://www.w3.org/2000/svg">
<g filter="url(#filter0_d)">
<path d="M31.1871 0H8.8129C6.15481 0 4 2.04925 4 4.57713V15.4229C4 17.9508 6.15481 20 8.8129 20H31.1871C33.8452 20 36 17.9508 36 15.4229V4.57713C36 2.04925 33.8452 0 31.1871 0Z" fill="#030303"/>
<path d="M24.4482 17H16.0635V15.8311L20.4932 10.9092C21.1494 10.165 21.6006 9.56152 21.8467 9.09863C22.0986 8.62988 22.2246 8.14648 22.2246 7.64844C22.2246 6.98047 22.0225 6.43262 21.6182 6.00488C21.2139 5.57715 20.6748 5.36328 20.001 5.36328C19.1924 5.36328 18.5625 5.59473 18.1113 6.05762C17.666 6.51465 17.4434 7.15332 17.4434 7.97363H15.8174C15.8174 6.7959 16.1953 5.84375 16.9512 5.11719C17.7129 4.39062 18.7295 4.02734 20.001 4.02734C21.1904 4.02734 22.1309 4.34082 22.8223 4.96777C23.5137 5.58887 23.8594 6.41797 23.8594 7.45508C23.8594 8.71484 23.0566 10.2148 21.4512 11.9551L18.0234 15.6729H24.4482V17Z" fill="#A4A4A3"/>
</g>
<defs>
<filter id="filter0_d" x="0" y="0" width="40" height="28" filterUnits="userSpaceOnUse" color-interpolation-filters="sRGB">
<feFlood flood-opacity="0" result="BackgroundImageFix"/>
<feColorMatrix in="SourceAlpha" type="matrix" values="0 0 0 0 0 0 0 0 0 0 0 0 0 0 0 0 0 0 127 0" result="hardAlpha"/>
<feOffset dy="4"/>
<feGaussianBlur stdDeviation="2"/>
<feComposite in2="hardAlpha" operator="out"/>
<feColorMatrix type="matrix" values="0 0 0 0 0 0 0 0 0 0 0 0 0 0 0 0 0 0 0.25 0"/>
<feBlend mode="normal" in2="BackgroundImageFix" result="effect1_dropShadow"/>
<feBlend mode="normal" in="SourceGraphic" in2="effect1_dropShadow" result="shape"/>
</filter>
</defs>
</svg>
